<?xml version="1.0" standalone="no"?><!DOCTYPE svg PUBLIC "-//W3C//DTD SVG 1.1//EN" "http://www.w3.org/Graphics/SVG/1.1/DTD/svg11.dtd"><svg t="1677853487870" class="icon" viewBox="0 0 1024 1024" version="1.1" xmlns="http://www.w3.org/2000/svg" p-id="5337" xmlns:xlink="http://www.w3.org/1999/xlink" width="200" height="200"><path d="M145.066667 371.285333v348.714667h131.498666V371.285333H145.066667z m-11.861334-59.733333H288.426667c26.453333 0 47.829333 21.418667 47.829333 47.829333v372.48c0 26.453333-21.418667 47.872-47.829333 47.872H133.12C106.794667 779.733333 85.333333 758.314667 85.333333 731.861333v-372.48c0-26.453333 21.418667-47.829333 47.872-47.829333zM446.250667 148.053333v571.733334h131.498666V148.053333H446.293333zM434.346667 88.32h155.306666c26.453333 0 47.829333 21.418667 47.829334 47.872v595.456c0 26.453333-21.418667 47.872-47.829334 47.872H434.346667c-26.453333 0-47.829333-21.418667-47.829334-47.872V136.192C386.517333 109.738667 407.893333 88.32 434.346667 88.32zM747.434667 720H878.933333v-231.68h-131.498666v231.68z m143.36-291.413333c26.453333 0 47.872 21.418667 47.872 47.872v255.402666c0 26.453333-21.418667 47.872-47.872 47.872H735.573333c-26.453333 0-47.829333-21.418667-47.829333-47.872V476.458667c0-26.453333 21.418667-47.872 47.829333-47.872h155.306667z" fill="#617282" p-id="5338"></path><path d="M85.333333 880.512m34.133334 0l785.066666 0q34.133333 0 34.133334 34.133333l0 0q0 34.133333-34.133334 34.133334l-785.066666 0q-34.133333 0-34.133334-34.133334l0 0q0-34.133333 34.133334-34.133333Z" fill="#617282" p-id="5339"></path></svg>