<?xml version="1.0" standalone="no"?><!DOCTYPE svg PUBLIC "-//W3C//DTD SVG 1.1//EN" "http://www.w3.org/Graphics/SVG/1.1/DTD/svg11.dtd"><svg t="1677854436397" class="icon" viewBox="0 0 1024 1024" version="1.1" xmlns="http://www.w3.org/2000/svg" p-id="11529" xmlns:xlink="http://www.w3.org/1999/xlink" width="200" height="200"><path d="M123.690667 128c19.754667 0 36.266667 14.506667 38.186666 33.578667l0.170667 3.584v545.024c0 59.52 48.256 108.544 109.653333 111.36l5.418667 0.128h613.632c20.48 0 37.333333 15.573333 38.314667 35.413333a37.546667 37.546667 0 0 1-34.602667 38.741333l-3.712 0.170667H277.12c-103.509333 0-188.330667-79.573333-191.701333-179.797333L85.333333 710.229333V165.12c0-9.856 4.053333-19.285333 11.221334-26.282667A38.954667 38.954667 0 0 1 123.733333 128z m786.005333 136.021333l0.981333 3.456 26.581334 121.173334c6.997333 31.872-12.757333 63.573333-45.141334 72.448l-4.096 1.024-125.013333 25.728a38.4 38.4 0 0 1-45.226667-26.837334 36.992 36.992 0 0 1 25.642667-44.928l3.584-0.938666 54.954667-11.306667-94.549334-56.192-204.16 167.936a39.338667 39.338667 0 0 1-44.288 3.669333l-3.114666-2.005333-79.573334-56.234667-115.328 103.04a39.253333 39.253333 0 0 1-51.370666 0.554667l-2.816-2.645333a36.266667 36.266667 0 0 1-0.554667-49.792l2.730667-2.730667 138.538666-123.733333a39.296 39.296 0 0 1 45.354667-4.778667l3.242667 2.090667 80.554666 56.917333 202.368-166.357333a39.338667 39.338667 0 0 1 41.557334-5.12l3.328 1.792 125.269333 74.453333-13.525333-61.781333a37.034667 37.034667 0 0 1 25.984-43.178667l3.584-0.853333a38.485333 38.485333 0 0 1 44.501333 25.130666z" fill="#424242" p-id="11530"></path></svg>