<svg t="1677722625184" class="icon" viewBox="0 0 1024 1024" version="1.1" xmlns="http://www.w3.org/2000/svg" p-id="8201" xmlns:xlink="http://www.w3.org/1999/xlink" width="200" height="200"><path d="M503.338667 42.773333a8.533333 8.533333 0 0 1 8.469333 6.698667l0.192 1.856V418.133333a93.866667 93.866667 0 0 0 93.866667 93.866667h366.805333c4.714667 0 8.533333 3.84 8.533333 8.533333v0.149334c-0.106667 5.674667-0.213333 10.176-0.384 13.504C969.237333 783.104 763.776 981.333333 512 981.333333 252.8 981.333333 42.666667 771.2 42.666667 512 42.666667 260.373333 240.682667 54.997333 489.386667 43.2l12.096-0.384 1.856-0.042667zM441.6 119.253333l-6.144 1.130667C251.434667 156.117333 113.066667 318.250667 113.066667 512c0 220.330667 178.602667 398.933333 398.933333 398.933333 193.984 0 355.626667-138.453333 391.509333-321.92l1.216-6.613333H605.866667a164.266667 164.266667 0 0 1-164.181334-159.061333L441.6 418.133333V119.253333z m149.333333-69.76h0.725334l9.130666 1.621334c2.56 0.469333 4.821333 0.896 6.826667 1.301333l2.858667 0.597333c182.229333 38.912 325.269333 183.594667 361.792 366.698667l2.154666 11.925333a8.533333 8.533333 0 0 1-6.954666 9.834667l-1.450667 0.128H629.333333a46.933333 46.933333 0 0 1-46.805333-43.584l-0.128-3.370667V58.026667a8.533333 8.533333 0 0 1 8.533333-8.533334z m62.144 93.802667a4.266667 4.266667 0 0 0-0.298666 1.557333v222.058667c0 2.346667 1.92 4.266667 4.266666 4.266667h222.08a4.266667 4.266667 0 0 0 3.968-5.824A400.512 400.512 0 0 0 658.602667 140.885333a4.266667 4.266667 0 0 0-5.546667 2.410667z" fill="#515151" p-id="8202" data-spm-anchor-id="a313x.7781069.0.i8" class="selected"></path></svg>