<svg t="1679892948059" class="icon" viewBox="0 0 1024 1024" version="1.1" xmlns="http://www.w3.org/2000/svg" p-id="5717" width="200" height="200"><path d="M832 176V64c0-35.3-28.7-64-64-64H64C28.7 0 0 28.7 0 64v704c0 35.3 28.7 64 64 64h112c8.8 0 16 7.2 16 16v112c0 35.3 28.7 64 64 64h704c35.3 0 64-28.7 64-64V256c0-35.3-28.7-64-64-64H848c-8.8 0-16-7.2-16-16zM176 768H80c-8.8 0-16-7.2-16-16V80c0-8.8 7.2-16 16-16h672c8.8 0 16 7.2 16 16v96c0 8.8-7.2 16-16 16H256c-35.3 0-64 28.7-64 64v496c0 8.8-7.2 16-16 16z m768 192H272c-8.8 0-16-7.2-16-16V272c0-8.8 7.2-16 16-16h672c8.8 0 16 7.2 16 16v672c0 8.8-7.2 16-16 16z" p-id="5718" fill="#707070"></path></svg>