<?xml version="1.0" standalone="no"?><!DOCTYPE svg PUBLIC "-//W3C//DTD SVG 1.1//EN" "http://www.w3.org/Graphics/SVG/1.1/DTD/svg11.dtd"><svg t="1677724146373" class="icon" viewBox="0 0 1024 1024" version="1.1" xmlns="http://www.w3.org/2000/svg" p-id="11292" data-spm-anchor-id="a313x.7781069.0.i13" xmlns:xlink="http://www.w3.org/1999/xlink" width="200" height="200"><path d="M896 128v832H64V128h832m64-64H0v960h960V64z" p-id="11293" data-spm-anchor-id="a313x.7781069.0.i15" class="selected" fill="#515151"></path><path d="M288 384c19.2 0 32-12.8 32-32s-12.8-32-32-32-32 12.8-32 32 12.8 32 32 32z m0 64c-51.2 0-96-44.8-96-96s44.8-96 96-96 96 44.8 96 96-44.8 96-96 96zM480 576c19.2 0 32-12.8 32-32s-12.8-32-32-32-32 12.8-32 32 12.8 32 32 32z m0 64c-51.2 0-96-44.8-96-96s44.8-96 96-96 96 44.8 96 96-44.8 96-96 96zM736 512c19.2 0 32-12.8 32-32s-12.8-32-32-32-32 12.8-32 32 12.8 32 32 32z m0 64c-51.2 0-96-44.8-96-96s44.8-96 96-96 96 44.8 96 96-44.8 96-96 96zM352 832c19.2 0 32-12.8 32-32s-12.8-32-32-32-32 12.8-32 32 12.8 32 32 32z m0 64c-51.2 0-96-44.8-96-96s44.8-96 96-96 96 44.8 96 96-44.8 96-96 96zM768 704h-64v-64h-64v64h-64v64h64v64h64v-64h64zM256 512h-64v64h-64v64h64v64h64v-64h64v-64h-64zM576 384v-64h64v-64h-64v-64h-64v64h-64v64h64v64z" p-id="11294" data-spm-anchor-id="a313x.7781069.0.i14" class="selected" fill="#515151"></path></svg>